<svg width="800" height="800" xmlns="http://www.w3.org/2000/svg">
 <metadata id="metadata8">image/svg+xml</metadata>
 <g>
  <title>FoxFox</title>
  <g id="g10" transform="matrix(1,0,0,-1,0,800) ">
   <g id="g12">
     <g id="g20">
      <path fill="#ff00ff" fill-rule="nonzero" d="m377.530792,186l118.414,412.954c3.164,11.036 13.667,19.046 24.974,19.046l103.253,0l-118.414,-412.953c-3.165,-11.036 -13.668,-19.047 -24.975,-19.047l-103.252,0z" id="path22"/>
     </g>
     <g id="g24">
      <path fill="#00ffff" fill-rule="nonzero" d="m381.530792,182l118.414,412.954c3.164,11.036 13.667,19.046 24.974,19.046l103.253,0l-118.414,-412.953c-3.165,-11.036 -13.668,-19.047 -24.975,-19.047l-103.252,0z" id="path26"/>
     </g>
     <g id="g28">
      <path fill="#000000" fill-rule="nonzero" d="m379.530792,184l118.414,412.954c3.164,11.036 13.667,19.046 24.974,19.046l103.253,0l-118.414,-412.953c-3.165,-11.036 -13.668,-19.047 -24.975,-19.047l-103.252,0z" id="path30"/>
     </g>
     <g id="g32">
      <path fill="#ff3d00" fill-rule="nonzero" d="m390.147491,192l115.487,402.749c2.165,7.554 9.596,13.251 17.284,13.251l92.579,0l-5.006,-17.661l-110.423,-385.087c-2.167,-7.555 -9.598,-13.252 -17.285,-13.252l-92.636,0z" id="path34"/>
     </g>
     <g id="g36">
      <path fill="#ffffff" fill-rule="nonzero" d="m400.764587,200l112.56,392.544c1.181,4.118 5.476,7.456 9.594,7.456l82.02,0l-112.561,-392.543c-1.18,-4.118 -5.475,-7.457 -9.593,-7.457l-82.02,0z" id="path38"/>
     </g>
     <g id="g40">
      <path fill="#ff0000" fill-rule="nonzero" d="m171.828094,186l118.414,412.954c3.163,11.036 13.666,19.046 24.974,19.046l103.253,0l-118.413,-412.953c-3.165,-11.036 -13.669,-19.047 -24.975,-19.047l-103.253,0z" id="path42"/>
     </g>
     <g id="g44">
      <path fill="#00ffff" fill-rule="nonzero" d="m175.828094,182l118.414,412.954c3.163,11.036 13.666,19.046 24.974,19.046l103.253,0l-118.413,-412.953c-3.165,-11.036 -13.669,-19.047 -24.975,-19.047l-103.253,0z" id="path46"/>
     </g>
     <g id="g48">
      <path fill="#000000" fill-rule="nonzero" d="m173.828094,184l118.414,412.954c3.163,11.036 13.666,19.046 24.974,19.046l103.253,0l-118.413,-412.953c-3.165,-11.036 -13.669,-19.047 -24.975,-19.047l-103.253,0z" id="path50"/>
     </g>
     <g id="g52">
      <path fill="#ff3d00" fill-rule="nonzero" d="m184.444794,192l115.487,402.749c2.165,7.554 9.596,13.251 17.284,13.251l92.579,0l-5.007,-17.661l-110.422,-385.087c-2.167,-7.555 -9.598,-13.252 -17.285,-13.252l-92.636,0z" id="path54"/>
     </g>
     <g id="g56">
      <path fill="#ffffff" fill-rule="nonzero" d="m195.061493,200l112.56,392.544c1.181,4.118 5.477,7.456 9.595,7.456l82.019,0l-112.56,-392.543c-1.181,-4.118 -5.476,-7.457 -9.594,-7.457l-82.02,0z" id="path58"/>
     </g>
   </g>
  </g>
 </g>
</svg>