<svg width="381" height="40" 
    xmlns="http://www.w3.org/2000/svg">
    <defs>
        <clipPath id="a">
            <path d="M-173.828 1455.5h800v-800h-800v800z"/>
        </clipPath>
    </defs>
    <g class="layer">
        <g clip-path="url(#a)" transform="matrix(1 0 0 -1 0 800)">
            <path fill="#ffffff" d="M99.469 768h-24v24h24v-24zm4 32h-32a4 4 0 0 1-4-4v-32a4 4 0 0 1 4-4h32a4 4 0 0 1 4 4v32a4 4 0 0 1-4 4M173.766 798.828a4 4 0 0 1-5.657 0l-13.172-13.172-13.171 13.172a4 4 0 0 1-5.657-5.656L149.28 780l-13.172-13.172a4 4 0 1 1 5.657-5.656l13.17 13.172 13.173-13.172a3.982 3.982 0 0 1 2.828-1.172 4 4 0 0 1 2.829 6.828L160.594 780l13.172 13.172a4 4 0 0 1 0 5.656M36 792a4 4 0 0 1 0 8H4a4 4 0 0 1-4-4v-32a4 4 0 0 1 8 0v12h28a4 4 0 0 1 0 8H8v8h28zM305.172 768h-24v24h24v-24zm4 32h-32a4 4 0 0 1-4-4v-32a4 4 0 0 1 4-4h32a4 4 0 0 1 4 4v32a4 4 0 0 1-4 4M379.469 798.828a4 4 0 0 1-5.657 0l-13.171-13.172-13.172 13.172a4 4 0 0 1-5.657-5.656L354.984 780l-13.172-13.172a4 4 0 1 1 5.657-5.656l13.172 13.172 13.17-13.172a3.983 3.983 0 0 1 2.83-1.172 4 4 0 0 1 2.828 6.828L366.297 780l13.172 13.172a4 4 0 0 1 0 5.656M241.703 792a4 4 0 0 1 0 8h-32a4 4 0 0 1-4-4v-32a4 4 0 0 1 8 0v12h28a4 4 0 0 1 0 8h-28v8h28z"/>
        </g>
    </g>
</svg>